HIERARCHY
ROOT Hips
{
	OFFSET 0.000000 0.000000 0.000000
	CHANNELS 6 Xposition Yposition Zposition Zrotation Yrotation Xrotation 
	JOINT LHipJoint
	{
		OFFSET 0.000000 0.000000 0.000000
		CHANNELS 3 Zrotation Yrotation Xrotation
		JOINT LeftUpLeg
		{
			OFFSET 1.363060 -1.794630 0.839290
			CHANNELS 3 Zrotation Yrotation Xrotation
			JOINT LeftLeg
			{
				OFFSET 2.448110 -6.726130 0.000000
				CHANNELS 3 Zrotation Yrotation Xrotation
				JOINT LeftFoot
				{
					OFFSET 2.562200 -7.039590 0.000000
					CHANNELS 3 Zrotation Yrotation Xrotation
					JOINT LeftToeBase
					{
						OFFSET 0.157640 -0.433110 2.322550
						CHANNELS 3 Zrotation Yrotation Xrotation
						End Site
						{
							OFFSET 0.000000 0.000000 0.000000
						}
					}
				}
			}
		}
	}
	JOINT RHipJoint
	{
		OFFSET 0.000000 0.000000 0.000000
		CHANNELS 3 Zrotation Yrotation Xrotation
		JOINT RightUpLeg
		{
			OFFSET -1.305520 -1.794630 0.839290
			CHANNELS 3 Zrotation Yrotation Xrotation
			JOINT RightLeg
			{
				OFFSET -2.542530 -6.985550 0.000000
				CHANNELS 3 Zrotation Yrotation Xrotation
				JOINT RightFoot
				{
					OFFSET -2.568260 -7.056230 0.000000
					CHANNELS 3 Zrotation Yrotation Xrotation
					JOINT RightToeBase
					{
						OFFSET -0.164730 -0.452590 2.363150
						CHANNELS 3 Zrotation Yrotation Xrotation
						End Site
						{
							OFFSET 0.000000 0.000000 0.000000
						}
					}
				}
			}
		}
	}
	JOINT LowerBack
	{
		OFFSET 0.000000 0.000000 0.000000
		CHANNELS 3 Zrotation Yrotation Xrotation
		JOINT Spine
		{
			OFFSET 0.028270 2.035590 -0.193380
			CHANNELS 3 Zrotation Yrotation Xrotation
			JOINT Spine1
			{
				OFFSET 0.056720 2.048850 -0.042750
				CHANNELS 3 Zrotation Yrotation Xrotation
				JOINT Neck
				{
					OFFSET 0.000000 0.000000 0.000000
					CHANNELS 3 Zrotation Yrotation Xrotation
					JOINT Neck1
					{
						OFFSET -0.054170 1.746240 0.172020
						CHANNELS 3 Zrotation Yrotation Xrotation
						JOINT Head
						{
							OFFSET 0.104070 1.761360 -0.123970
							CHANNELS 3 Zrotation Yrotation Xrotation
							End Site
							{
								OFFSET 0.000000 0.000000 0.000000
							}
						}
					}
				}
				JOINT LeftShoulder
				{
					OFFSET 0.000000 0.000000 0.000000
					CHANNELS 3 Zrotation Yrotation Xrotation
					JOINT LeftArm
					{
						OFFSET 3.362410 1.200890 -0.311210
						CHANNELS 3 Zrotation Yrotation Xrotation
						JOINT LeftForeArm
						{
							OFFSET 4.983000 -0.000000 -0.000000
							CHANNELS 3 Zrotation Yrotation Xrotation
							JOINT LeftHand
							{
								OFFSET 3.483560 -0.000000 -0.000000
								CHANNELS 3 Zrotation Yrotation Xrotation
								JOINT LeftFingerBase
								{
									OFFSET 0.000000 0.000000 0.000000
									CHANNELS 3 Zrotation Yrotation Xrotation
									JOINT LeftHandIndex1
									{
										OFFSET 0.715260 -0.000000 -0.000000
										CHANNELS 3 Zrotation Yrotation Xrotation
										End Site
										{
											OFFSET 0.000000 0.000000 0.000000
										}
									}
								}
								JOINT LThumb
								{
									OFFSET 0.000000 0.000000 0.000000
									CHANNELS 3 Zrotation Yrotation Xrotation
									End Site
									{
										OFFSET 0.000000 0.000000 0.000000
									}
								}
							}
						}
					}
				}
				JOINT RightShoulder
				{
					OFFSET 0.000000 0.000000 0.000000
					CHANNELS 3 Zrotation Yrotation Xrotation
					JOINT RightArm
					{
						OFFSET -3.136600 1.374050 -0.404650
						CHANNELS 3 Zrotation Yrotation Xrotation
						JOINT RightForeArm
						{
							OFFSET -5.241900 -0.000000 -0.000000
							CHANNELS 3 Zrotation Yrotation Xrotation
							JOINT RightHand
							{
								OFFSET -3.444170 -0.000000 -0.000000
								CHANNELS 3 Zrotation Yrotation Xrotation
								JOINT RightFingerBase
								{
									OFFSET 0.000000 0.000000 0.000000
									CHANNELS 3 Zrotation Yrotation Xrotation
									JOINT RightHandIndex1
									{
										OFFSET -0.622530 -0.000000 -0.000000
										CHANNELS 3 Zrotation Yrotation Xrotation
										End Site
										{
											OFFSET 0.000000 0.000000 0.000000
										}
									}
								}
								JOINT RThumb
								{
									OFFSET 0.000000 0.000000 0.000000
									CHANNELS 3 Zrotation Yrotation Xrotation
									End Site
									{
										OFFSET 0.000000 0.000000 0.000000
									}
								}
							}
						}
					}
				}
			}
		}
	}
}
MOTION
Frames: 12
Frame Time: 0.008333
3.687368 16.946046 -4.295425 -172.226537 16.100934 -157.068717 -14.551911 4.643608 4.716935 -7.317167 -7.825888 1.600910 0.794862 1.207847 19.852249 1.103907 -3.070427 27.610750 -2.256900 0.000000 -30.823700 5.168469 -2.572693 4.490049 12.218197 6.455557 -33.367439 4.486728 0.304407 12.518272 0.768173 3.828757 1.371610 0.047700 0.000000 -50.014900 12.315849 -2.384535 -9.364560 2.175938 -3.781774 -4.487128 -6.294889 -3.896583 0.477267 8.185096 -14.439913 -6.351344 -3.806443 -0.312348 0.414417 0.000000 0.000000 0.000000 5.938159 1.463336 -1.501214 -77.979033 -37.119792 39.815680 -178.234611 -73.218539 179.963912 4.032321 -1.645246 -0.086678 -0.299421 0.795451 -0.000000 0.000000 0.000000 0.000000 0.000000 0.000000 0.000000 11.483684 -12.108121 2.399507 64.697416 -15.288460 -10.444468 1.285816 65.583217 0.004189 0.292415 2.316997 0.006065 0.047117 -0.147901 0.000000 0.000000 0.000000 0.000000 0.000000 0.000000 0.000000 
3.794019 16.887496 -4.456456 -172.197642 15.878333 -157.333312 -14.727803 4.719912 4.413571 -6.808928 -5.525411 0.933957 0.837904 1.218809 21.627811 1.232589 -3.047537 28.625962 -2.360700 0.000000 -32.441800 5.107678 -2.622399 4.677179 12.188045 7.648654 -33.738097 4.209988 0.031936 15.548141 0.446602 2.656174 -0.844223 -0.162200 -0.000001 -46.928500 12.572224 -2.328612 -9.399279 2.199293 -3.757141 -4.462221 -6.385270 -3.853512 0.591312 7.914711 -14.530864 -6.598195 -3.958844 -0.321658 0.343595 0.000000 0.000000 0.000000 5.812216 1.884846 -1.355524 -76.212684 -36.511684 38.342118 -178.062556 -71.744689 179.970051 3.535811 -1.810068 -0.081926 -0.284112 0.812080 -0.000000 0.000000 0.000000 0.000000 0.000000 0.000000 0.000000 11.867995 -12.200403 2.246427 64.586239 -14.291924 -9.778330 1.267886 65.709060 0.003540 -0.124736 2.675973 -0.003498 0.048666 -0.152732 0.000000 0.000000 0.000000 0.000000 0.000000 0.000000 0.000000 
3.897747 16.831635 -4.615167 -172.207004 15.653500 -157.609054 -14.882736 4.769488 4.128600 -6.356493 -3.439614 0.185523 0.870302 1.232159 23.604898 1.366796 -2.743002 29.470810 -2.295100 -0.000000 -33.542100 5.067032 -2.638426 4.815692 12.150989 8.701939 -34.098368 3.918209 -0.241457 18.731817 0.102992 1.534391 -3.202492 -0.271200 0.000000 -44.091500 12.792571 -2.295798 -9.396365 2.212019 -3.751689 -4.433133 -6.494682 -3.829452 0.688680 7.679551 -14.586771 -6.856734 -4.118645 -0.331444 0.268514 0.000000 0.000000 0.000000 5.661165 2.296914 -1.198226 -74.388608 -35.769891 36.814362 -177.921862 -70.485275 179.976994 2.986982 -1.981373 -0.074231 -0.264062 0.826908 -0.000000 0.000000 0.000000 0.000000 0.000000 0.000000 0.000000 12.335968 -12.245755 2.098463 64.439762 -13.145745 -9.082850 1.259269 65.688870 0.002762 -0.591931 3.025297 -0.017060 0.051363 -0.157621 -0.000000 0.000000 0.000000 0.000000 0.000000 0.000000 0.000000 
3.997895 16.780090 -4.771024 -172.254577 15.416094 -157.899040 -15.012030 4.791270 3.865517 -5.986039 -1.628380 -0.628726 0.893419 1.253051 25.771846 1.503794 -2.113742 30.100411 -2.024800 0.000001 -34.174399 5.049623 -2.625060 4.897048 12.126339 9.555663 -34.366768 3.633892 -0.495135 21.851600 -0.238482 0.513625 -5.551233 -0.279100 -0.000000 -41.734999 12.968345 -2.288694 -9.345349 2.212781 -3.766132 -4.399772 -6.621341 -3.825667 0.762222 7.488388 -14.600287 -7.119825 -4.283166 -0.341543 0.191079 0.000000 0.000000 0.000000 5.501755 2.688182 -1.034804 -72.555129 -34.875307 35.274579 -177.821407 -69.470572 179.984182 2.422759 -2.141827 -0.063989 -0.240636 0.838577 -0.000000 0.000000 0.000000 0.000000 0.000000 0.000000 0.000000 12.885838 -12.234124 1.961205 64.272572 -11.860046 -8.373717 1.259916 65.515112 0.001843 -1.111531 3.351634 -0.034918 0.055246 -0.162503 -0.000000 0.000000 0.000000 0.000000 0.000000 0.000000 0.000000 
4.094235 16.734453 -4.923563 -172.338903 15.162743 -158.200801 -15.113652 4.785701 3.625493 -5.711775 -0.124550 -1.507874 0.908776 1.286475 28.113713 1.640889 -1.154315 30.474415 -1.540900 0.000000 -34.415700 5.053950 -2.591256 4.920075 12.131583 10.178554 -34.480504 3.377169 -0.713395 24.713557 -0.556800 -0.376548 -7.767652 -0.204900 -0.000000 -40.028700 13.097466 -2.305737 -9.241577 2.201782 -3.797960 -4.363424 -6.761144 -3.840405 0.804285 7.344045 -14.561973 -7.377383 -4.449237 -0.351776 0.114065 0.000000 0.000000 0.000000 5.349097 3.042627 -0.870399 -70.758472 -33.808063 33.762023 -177.768843 -68.720275 179.990952 1.886100 -2.272903 -0.052090 -0.215659 0.845725 -0.000000 0.000000 0.000000 0.000000 0.000000 0.000000 0.000000 13.505633 -12.153608 1.840528 64.104413 -10.455053 -7.669910 1.269181 65.189478 0.000780 -1.677447 3.642509 -0.056876 0.060201 -0.167354 -0.000000 0.000000 0.000000 0.000000 0.000000 0.000000 0.000000 
4.186398 16.695922 -5.072516 -172.450173 14.890987 -158.505514 -15.188166 4.754459 3.408713 -5.537980 1.063450 -2.461238 0.918244 1.336642 30.609216 1.775716 0.104425 30.560956 -0.863600 0.000000 -34.357900 5.075121 -2.547544 4.889023 12.178992 10.564052 -34.402294 3.162635 -0.887070 27.171594 -0.837168 -1.120625 -9.767234 -0.076100 -0.000000 -39.043300 13.182653 -2.342504 -9.086307 2.179886 -3.842838 -4.325447 -6.911265 -3.869862 0.811563 7.246611 -14.465698 -7.621286 -4.613416 -0.361914 0.039721 0.000000 0.000000 0.000000 5.208786 3.355666 -0.707555 -69.034945 -32.572798 32.320405 -177.768073 -68.250811 179.996583 1.425416 -2.354686 -0.040315 -0.191591 0.847077 -0.000000 0.000000 0.000000 0.000000 0.000000 0.000000 0.000000 14.180788 -11.995515 1.739814 63.950966 -8.955976 -6.980466 1.285600 64.727618 -0.000435 -2.280972 3.885920 -0.082234 0.066037 -0.172177 -0.000000 0.000000 0.000000 0.000000 0.000000 0.000000 0.000000 
4.274412 16.665325 -5.217815 -172.581077 14.599493 -158.805302 -15.236373 4.700597 3.213987 -5.463180 1.948555 -3.498783 0.923816 1.406685 33.228716 1.906002 1.602909 30.339625 -0.037600 -0.000000 -34.094200 5.108337 -2.502842 4.810281 12.271441 10.720909 -34.118584 2.997469 -1.013224 29.138325 -1.071305 -1.711020 -11.503753 0.079100 -0.000001 -38.735500 13.225601 -2.393264 -8.883552 2.147913 -3.895134 -4.287724 -7.067569 -3.908958 0.781074 7.191500 -14.305200 -7.841644 -4.771910 -0.371717 -0.029133 0.000000 0.000000 0.000000 5.087350 3.618765 -0.549009 -67.412957 -31.177496 30.983220 -177.821049 -68.070367 -179.999625 1.089493 -2.366113 -0.030642 -0.170820 0.841502 -0.000000 0.000000 0.000000 0.000000 0.000000 0.000000 0.000000 14.889059 -11.752874 1.661219 63.833341 -7.398027 -6.314658 1.306931 64.155311 -0.001800 -2.904841 4.075197 -0.109595 0.072419 -0.177045 -0.000000 0.000000 0.000000 0.000000 0.000000 0.000000 0.000000 
4.358706 16.643077 -5.359481 -172.729337 14.287521 -159.095644 -15.258550 4.628152 3.039370 -5.482874 2.558296 -4.625356 0.927885 1.498145 35.931810 2.029553 3.264290 29.803639 0.875401 0.000000 -33.701000 5.150604 -2.463045 4.691155 12.401751 10.667820 -33.632231 2.882342 -1.092998 30.577155 -1.256494 -2.148267 -12.959357 0.237100 0.000000 -38.965900 13.225052 -2.452099 -8.639321 2.105851 -3.948999 -4.250591 -7.227377 -3.951801 0.717249 7.173568 -14.083571 -8.034415 -4.920583 -0.380857 -0.091298 0.000000 0.000000 0.000000 4.982082 3.842865 -0.395614 -65.903378 -29.667622 29.785048 -177.924282 -68.184616 -179.998258 0.926383 -2.287437 -0.024947 -0.155868 0.828253 -0.000000 0.000000 0.000000 0.000000 0.000000 0.000000 0.000000 15.610150 -11.429636 1.602493 63.766430 -5.811393 -5.664484 1.330297 63.508820 -0.003321 -3.533381 4.207835 -0.137461 0.079021 -0.182058 -0.000000 0.000000 0.000000 0.000000 0.000000 0.000000 0.000000 
4.439766 16.629151 -5.497713 -172.892556 13.952991 -159.376370 -15.254620 4.541455 2.881744 -5.588716 2.933125 -5.836454 0.933480 1.610522 38.669674 2.144113 5.004615 28.956047 1.806600 -0.000000 -33.218400 5.201349 -2.431391 4.539041 12.554870 10.429035 -32.954489 2.813474 -1.130180 31.493334 -1.393954 -2.440519 -14.136348 0.380400 0.000000 -39.537800 13.176087 -2.512468 -8.359768 2.053651 -3.997309 -4.217316 -7.383652 -3.992033 0.613028 7.177456 -13.790714 -8.182752 -5.056075 -0.389211 -0.141796 0.000000 0.000000 0.000000 4.906628 3.993383 -0.251899 -64.521085 -28.030651 28.723409 -178.075912 -68.575676 -179.999730 0.973940 -2.102032 -0.024217 -0.147770 0.807050 0.000000 0.000000 0.000000 0.000000 0.000000 0.000000 0.000000 16.305027 -11.019090 1.565251 63.782906 -4.252168 -5.048454 1.352472 62.826547 -0.004942 -4.127594 4.295991 -0.163932 0.085242 -0.187457 -0.000000 0.000000 0.000000 0.000000 0.000000 0.000000 0.000000 
4.518237 16.623208 -5.633120 -173.072050 13.592158 -159.641955 -15.225830 4.444069 2.741197 -5.770782 3.109023 -7.133196 0.943666 1.740750 41.393372 2.248017 6.745828 27.811455 2.690900 -0.000000 -32.704400 5.260471 -2.408933 4.363562 12.711995 10.034111 -32.112940 2.784159 -1.129224 31.920469 -1.487946 -2.605095 -15.047474 0.498100 -0.000000 -40.229700 13.077438 -2.568384 -8.058108 1.990693 -4.035158 -4.184264 -7.538581 -4.023223 0.492918 7.202682 -13.455416 -8.302687 -5.173984 -0.396259 -0.185064 0.000000 0.000000 0.000000 4.832393 4.142490 -0.113175 -63.241996 -26.410057 27.847428 -178.259555 -69.260104 179.995846 1.264961 -1.804792 -0.027730 -0.148850 0.778500 0.000000 0.000000 0.000000 0.000000 0.000000 0.000000 0.000000 16.969192 -10.551724 1.536269 63.868097 -2.724988 -4.404300 1.369679 62.163564 -0.006722 -4.699241 4.338834 -0.188606 0.091123 -0.193270 -0.000000 0.000000 0.000000 0.000000 0.000000 0.000000 0.000000 
4.595000 16.624710 -5.766200 -173.273751 13.207245 -159.899121 -15.170979 4.339603 2.613886 -6.021335 3.133725 -8.495206 0.960539 1.884115 44.044631 2.339414 8.421128 26.389237 3.473400 0.000000 -32.123400 5.331577 -2.394736 4.172324 12.848281 9.514237 -31.125359 2.785203 -1.095860 31.913356 -1.543824 -2.664247 -15.712137 0.585200 -0.000001 -40.877900 12.920047 -2.613803 -7.741299 1.916447 -4.055589 -4.155192 -7.683599 -4.039210 0.347784 7.228066 -13.069320 -8.375658 -5.272459 -0.402049 -0.215499 0.000000 0.000000 0.000000 4.774597 4.236499 0.015571 -62.066774 -24.769107 27.123682 -178.469121 -70.193907 179.988624 1.807486 -1.397949 -0.032589 -0.158010 0.743661 0.000000 0.000000 0.000000 0.000000 0.000000 0.000000 0.000000 17.557977 -10.024580 1.517027 64.055811 -1.282905 -3.756069 1.379630 61.554045 -0.008517 -5.195094 4.367451 -0.209988 0.095996 -0.199806 -0.000000 0.000000 0.000000 0.000000 0.000000 0.000000 0.000000 
4.670755 16.633021 -5.897807 -173.501828 12.798328 -160.144070 -15.091027 4.229988 2.500462 -6.332167 3.041789 -9.916070 0.985017 2.034029 46.575965 2.417464 9.980805 24.715127 4.113800 0.000000 -31.466700 5.416957 -2.387371 3.975665 12.942112 8.904404 -30.026345 2.806835 -1.035765 31.540988 -1.568317 -2.645857 -16.152916 0.641500 0.000000 -41.364400 12.701846 -2.643142 -7.424749 1.830927 -4.053994 -4.129549 -7.816830 -4.034619 0.191248 7.244922 -12.651931 -8.408485 -5.349556 -0.406400 -0.234755 0.000000 0.000000 0.000000 4.717773 4.301376 0.136250 -60.974531 -23.178538 26.558049 -178.688762 -71.354543 179.979094 2.592130 -0.900339 -0.034696 -0.174691 0.704389 0.000000 0.000000 0.000000 0.000000 0.000000 0.000000 0.000000 18.055723 -9.459758 1.498855 64.338097 0.062561 -3.066400 1.380233 61.040688 -0.010282 -5.607244 4.399549 -0.228571 0.099772 -0.207154 -0.000000 0.000000 0.000000 0.000000 0.000000 0.000000 0.000000 
